<svg width="27" height="27" viewBox="0 0 27 27" fill="none" xmlns="http://www.w3.org/2000/svg">
<path d="M17.002 1.44549L17.0619 8.03354C17.0687 8.78916 17.9694 9.17798 18.4959 8.6532L20.59 6.56575C24.5333 10.5217 24.591 16.8736 20.7187 20.7336C19.7945 21.6549 18.715 22.3736 17.5623 22.8316C16.9624 23.0722 16.6138 23.6818 16.6196 24.3193C16.6306 25.5236 17.8657 26.3415 18.9712 25.8829C20.4766 25.2638 21.8847 24.3367 23.1014 23.1239C28.2723 17.9694 28.1955 9.51593 22.9297 4.23341L25.0238 2.14597C25.5503 1.62119 25.1643 0.719258 24.4207 0.721941L17.8328 0.641119C17.3723 0.623664 16.9979 0.996841 17.002 1.44549ZM6.55135 20.5598C2.60801 16.6039 2.55028 10.252 6.4226 6.39195C7.34681 5.47067 8.42633 4.75199 9.57903 4.29393C10.1789 4.05337 10.5275 3.44378 10.5217 2.80623C10.5108 1.60196 9.27563 0.784049 8.17014 1.2427C6.66475 1.86171 5.25659 2.78885 4.03991 4.00167C-1.13098 9.15615 -1.05416 17.6096 4.21158 22.8921L2.11749 24.9796C1.59104 25.5044 1.97699 26.4063 2.72067 26.4036L9.3085 26.4844C9.78075 26.4902 10.1434 26.1287 10.1391 25.6565L10.0792 19.0684C10.0726 18.3364 9.1719 17.9476 8.64545 18.4724L6.55135 20.5598Z" fill="#E8F9FF" fill-opacity="0.4"/>
</svg>
